<svg xmlns="http://www.w3.org/2000/svg" width="1900" height="1529" viewBox="0 0 1900 1529" version="1.1"><path d="" stroke="none" fill="#080404" fill-rule="evenodd"/><path d="M 86.500 1.069 C 59.710 3.171, 40.181 11.006, 25.567 25.517 C 10.188 40.788, 3.051 59.487, 0.956 90 C 0.215 100.789, -0.012 309.128, 0.207 775.500 C 0.506 1411.489, 0.612 1445.978, 2.292 1454.916 C 10.272 1497.369, 33.003 1519.609, 76.120 1527.151 C 82.100 1528.197, 245.952 1528.500, 940 1528.752 C 1496.079 1528.953, 1801.261 1528.716, 1810.075 1528.076 C 1817.541 1527.533, 1827.216 1526.355, 1831.575 1525.457 C 1872.168 1517.092, 1896.028 1488.022, 1898.667 1443.713 C 1899.021 1437.781, 1899.690 1432.692, 1900.155 1432.404 C 1900.620 1432.117, 1901 1131.057, 1901 763.382 C 1901 392.802, 1900.618 95.118, 1900.144 95.411 C 1899.673 95.702, 1899.036 91.566, 1898.728 86.220 C 1897.266 60.799, 1889.045 40.232, 1874.483 25.567 C 1859.571 10.549, 1840.940 3.242, 1811.916 1.028 C 1795.862 -0.196, 102.122 -0.156, 86.500 1.069 M 0.497 764.500 C 0.497 1132.450, 0.611 1283.124, 0.750 1099.332 C 0.889 915.540, 0.889 614.490, 0.750 430.332 C 0.611 246.174, 0.497 396.550, 0.497 764.500 M 1004.300 162.382 C 1003.860 163.143, 1001.475 166.056, 999 168.857 C 996.525 171.658, 993.305 175.423, 991.843 177.225 C 990.382 179.026, 984.804 185.675, 979.448 192 C 974.092 198.325, 967.880 205.975, 965.645 209 C 963.410 212.025, 958.488 218.288, 954.708 222.917 C 950.928 227.547, 945.622 234.522, 942.918 238.417 C 940.213 242.313, 935.705 248.650, 932.900 252.500 C 923.967 264.758, 900 301.804, 900 303.352 C 900 303.653, 898.709 305.835, 897.132 308.200 C 895.554 310.565, 891.328 318.125, 887.740 325 C 884.153 331.875, 880.507 338.850, 879.638 340.500 C 878.769 342.150, 876.412 347.325, 874.400 352 C 868.828 364.945, 865.745 371.447, 864.910 372.011 C 864.495 372.293, 712.020 372.518, 526.077 372.511 L 188 372.500 188 870.750 L 188 1369 272.499 1369 L 356.998 1369 357.249 955.750 L 357.500 542.500 594.096 542.248 L 830.693 541.996 831.261 573.731 C 831.574 591.185, 831.649 605.759, 831.428 606.116 C 831.207 606.474, 740.683 606.791, 630.263 606.822 C 519.843 606.853, 427.813 606.905, 425.750 606.939 L 422 607 422 988 L 422 1369 506.498 1369 L 590.997 1369 591.248 1072.750 L 591.500 776.500 735 776.248 L 878.500 775.996 883.915 785.129 C 891.141 797.317, 901.341 812.346, 909.135 822.288 C 917.956 833.541, 940.659 856.267, 951.671 864.867 C 971.299 880.195, 995.186 894.528, 1013.500 901.967 C 1025.548 906.860, 1031.362 908.943, 1036 910.028 C 1039.025 910.736, 1042.884 911.893, 1044.575 912.598 C 1046.266 913.303, 1050.766 914.401, 1054.575 915.037 C 1058.384 915.673, 1063.750 916.809, 1066.500 917.562 C 1077.162 920.481, 1102.507 922.177, 1128.537 921.714 C 1154.811 921.247, 1163.478 920.416, 1179 916.872 C 1189.103 914.566, 1208.510 908.751, 1213.500 906.535 C 1232.002 898.320, 1250.494 887.840, 1263.071 878.443 C 1266.057 876.212, 1269.525 873.685, 1270.779 872.829 C 1272.032 871.972, 1274.963 869.523, 1277.293 867.386 C 1279.622 865.249, 1284.969 860.458, 1289.175 856.740 L 1296.822 849.979 1300.161 852.675 C 1301.997 854.157, 1305.300 857.057, 1307.500 859.118 C 1315.480 866.596, 1343.438 887, 1345.704 887 C 1346.023 887, 1349.033 888.711, 1352.392 890.803 C 1358.497 894.603, 1375.261 903, 1376.744 903 C 1377.176 903, 1379.127 903.856, 1381.079 904.902 C 1383.031 905.949, 1387.974 907.777, 1392.064 908.966 C 1396.154 910.155, 1400.850 911.729, 1402.500 912.464 C 1404.150 913.198, 1409.028 914.518, 1413.340 915.396 C 1417.652 916.274, 1421.631 917.272, 1422.184 917.613 C 1422.736 917.955, 1429.558 919.065, 1437.344 920.081 C 1463.749 923.526, 1510.186 922.248, 1532 917.476 C 1533.375 917.175, 1536.975 916.468, 1540 915.905 C 1548.478 914.327, 1569.170 908.270, 1577.769 904.848 C 1597.095 897.159, 1623.880 881.786, 1640 869.132 C 1657.977 855.020, 1682.366 830.092, 1691 817.004 C 1691.825 815.754, 1694.389 812.376, 1696.697 809.498 C 1699.005 806.620, 1701.863 802.405, 1703.048 800.133 C 1704.233 797.860, 1705.606 796, 1706.101 796 C 1706.595 796, 1707 795.393, 1707 794.650 C 1707 793.908, 1708.258 791.545, 1709.796 789.400 C 1711.333 787.255, 1713.505 783.700, 1714.622 781.500 C 1715.739 779.300, 1719.356 772.325, 1722.660 766 C 1728.072 755.640, 1738.008 732.017, 1738.011 729.500 C 1738.012 728.950, 1738.659 727.260, 1739.450 725.744 C 1742.086 720.690, 1750.972 688.626, 1754.067 673 C 1758.745 649.377, 1760.495 638.383, 1762.024 623 C 1762.543 617.775, 1763.435 609.675, 1764.007 605 C 1765.336 594.129, 1765.323 533.329, 1763.989 521.500 C 1763.431 516.550, 1762.520 507.550, 1761.964 501.500 C 1759.693 476.794, 1753.549 444.201, 1746.978 422 C 1745.431 416.775, 1743.411 409.575, 1742.489 406 C 1741.567 402.425, 1740.448 398.600, 1740.003 397.500 C 1739.558 396.400, 1737.537 391, 1735.512 385.500 C 1728.067 365.281, 1713.632 333.525, 1704.500 317.279 C 1698.461 306.535, 1696.412 302.987, 1694.520 300 C 1691.170 294.710, 1682.634 281.046, 1681.500 279.159 C 1679.410 275.680, 1666.888 257.220, 1662.295 250.847 C 1659.658 247.187, 1655.700 241.645, 1653.500 238.530 C 1644.583 225.905, 1612.435 185.839, 1601.722 174 C 1600.478 172.625, 1597.486 169.137, 1595.073 166.250 L 1590.687 161 1492.343 161 L 1394 161 1394 197.315 L 1394 233.630 1401.557 239.565 C 1405.713 242.829, 1410.101 246.463, 1411.307 247.640 C 1412.513 248.817, 1416.200 251.949, 1419.500 254.599 C 1440.769 271.684, 1464.383 296.385, 1484.663 322.763 C 1494.906 336.087, 1508.409 356.059, 1513.893 366 C 1515.259 368.475, 1517.867 373.200, 1519.689 376.500 C 1523.201 382.859, 1530.574 397.841, 1534.700 407 C 1536.063 410.025, 1537.623 413.338, 1538.167 414.361 C 1538.711 415.385, 1540.241 419.545, 1541.566 423.606 C 1542.892 427.667, 1544.429 431.779, 1544.983 432.745 C 1547.386 436.935, 1554.798 462.934, 1558.455 480 C 1565.327 512.068, 1566.508 524.833, 1566.452 566.500 C 1566.406 600.936, 1565.795 610.717, 1562.456 630.500 C 1561.400 636.753, 1557.731 652.795, 1556.966 654.500 C 1556.473 655.600, 1555.352 659.368, 1554.475 662.873 C 1552.799 669.576, 1548.580 680.902, 1544.454 689.777 C 1543.104 692.680, 1542 695.492, 1542 696.027 C 1542 696.562, 1541.550 697, 1541 697 C 1540.450 697, 1540.111 697.337, 1540.247 697.750 C 1540.750 699.278, 1530.396 713.721, 1524.054 720.337 C 1508.294 736.779, 1492.630 742.931, 1466.500 742.942 C 1454.234 742.947, 1440.332 741.492, 1435.500 739.698 C 1426.242 736.260, 1424.460 735.437, 1423.700 734.250 C 1423.260 733.563, 1422.248 733, 1421.450 733 C 1420.653 733, 1420 732.550, 1420 732 C 1420 731.450, 1419.430 731, 1418.733 731 C 1416.001 731, 1406.561 721.268, 1400.928 712.644 L 1395 703.570 1395 515.785 L 1395 328 1298 328 L 1201 328 1201 516.632 L 1201 705.264 1198.787 708.882 C 1197.571 710.872, 1196.108 713.036, 1195.537 713.690 C 1194.967 714.345, 1193.415 716.370, 1192.090 718.190 C 1185.418 727.351, 1170.753 736.033, 1155 740.148 C 1143.223 743.224, 1112.794 743.482, 1103.500 740.584 C 1090.453 736.517, 1084.191 732.686, 1073.934 722.497 C 1057.664 706.334, 1046.188 684.106, 1037.023 651 C 1028.118 618.836, 1026.595 542.938, 1034.014 501 C 1035.035 495.225, 1036.580 486.450, 1037.447 481.500 C 1038.314 476.550, 1039.430 471.600, 1039.928 470.500 C 1040.426 469.400, 1041.337 466.250, 1041.952 463.500 C 1043.618 456.054, 1049.885 436.108, 1052.080 431.261 C 1053.136 428.929, 1054 426.574, 1054 426.027 C 1054 425.480, 1055.799 420.862, 1057.998 415.766 C 1060.196 410.670, 1061.996 405.938, 1061.998 405.250 C 1061.999 404.563, 1062.450 404, 1063 404 C 1063.550 404, 1064 403.556, 1064 403.014 C 1064 400.349, 1082.536 365.436, 1087.750 358.279 C 1088.987 356.581, 1090 354.967, 1090 354.692 C 1090 353.673, 1104.623 332.255, 1109.966 325.450 C 1113.010 321.572, 1116.400 317.110, 1117.500 315.535 C 1127.852 300.709, 1171.291 257.404, 1188.494 244.760 C 1189.047 244.353, 1192.313 241.727, 1195.750 238.924 L 1202 233.827 1202 197.413 L 1202 161 1103.550 161 C 1020.814 161, 1004.972 161.221, 1004.300 162.382" stroke="none" fill="#040404" fill-rule="evenodd"/></svg>